<?xml version="1.0" standalone="no"?>
<svg viewBox="0 0 200 200" xmlns="http://www.w3.org/2000/svg">
  <path fill="#FF0066" d="M47.2,-71C58.9,-65.8,64.8,-49,68.3,-33.5C71.7,-18,72.8,-3.7,67.6,7.4C62.4,18.5,51,26.4,43.1,39.7C35.2,52.9,30.8,71.6,20.2,79.6C9.6,87.6,-7.3,85.1,-21.6,78.6C-35.9,72.1,-47.6,61.7,-60,50.3C-72.4,39,-85.5,26.6,-89,11.9C-92.5,-2.8,-86.4,-19.7,-77.4,-33.7C-68.4,-47.6,-56.5,-58.5,-43.1,-63C-29.8,-67.4,-14.9,-65.4,1.4,-67.6C17.7,-69.7,35.4,-76.1,47.2,-71Z" transform="translate(100 100)" />
</svg>
